<svg xmlns="http://www.w3.org/2000/svg" width="46" height="46" viewBox="0 0 46 46">
  <g fill="none" fill-rule="evenodd">
    <path fill="#FFF" d="M23 45c12.15 0 22-9.85 22-22S35.15 1 23 1 1 10.85 1 23s9.85 22 22 22z"/>
    <path fill="#4285F4" d="M32.64 24.52c0-.64-.06-1.25-.16-1.84H23v3.48h5.44c-.23 1.23-.94 2.27-2 2.97v2.48h3.22c1.89-1.74 2.98-4.3 2.98-7.09z"/>
    <path fill="#34A853" d="M23 33c2.7 0 4.97-.9 6.62-2.44l-3.22-2.48c-.89.6-2.03.96-3.4.96-2.61 0-4.82-1.77-5.61-4.14h-3.3v2.6C16.02 30.98 19.25 33 23 33z"/>
    <path fill="#FBBC05" d="M17.39 24.9c-.2-.6-.32-1.24-.32-1.9s.12-1.3.32-1.9v-2.6h-3.3A9.98 9.98 0 0 0 13 23c0 1.57.38 3.05 1.09 4.34l3.3-2.44z"/>
    <path fill="#EA4335" d="M23 18.38c1.47 0 2.79.51 3.83 1.5l2.87-2.87C27.97 15.9 25.7 15 23 15c-3.75 0-6.98 2.02-8.61 4.96l3.3 2.44c.79-2.37 3-4.14 5.61-4.14z"/>
  </g>
</svg>
