<svg xmlns="http://www.w3.org/2000/svg" xmlns:xlink="http://www.w3.org/1999/xlink" width="500" zoomAndPan="magnify" viewBox="0 0 375 374.999991" height="500" preserveAspectRatio="xMidYMid meet" version="1.0"><defs><clipPath id="977a37048c"><path d="M 125.082031 202.78125 L 249.582031 202.78125 L 249.582031 237.28125 L 125.082031 237.28125 Z M 125.082031 202.78125 " clip-rule="nonzero"/></clipPath><clipPath id="22b06f3360"><path d="M 142.332031 202.78125 L 232.660156 202.78125 C 242.183594 202.78125 249.90625 210.5 249.90625 220.027344 L 249.90625 220.289062 C 249.90625 229.816406 242.183594 237.539062 232.660156 237.539062 L 142.332031 237.539062 C 132.804688 237.539062 125.082031 229.816406 125.082031 220.289062 L 125.082031 220.027344 C 125.082031 210.5 132.804688 202.78125 142.332031 202.78125 Z M 142.332031 202.78125 " clip-rule="nonzero"/></clipPath><clipPath id="9e190e8222"><path d="M 135.261719 137.457031 L 234.261719 137.457031 L 234.261719 199.707031 L 135.261719 199.707031 Z M 135.261719 137.457031 " clip-rule="nonzero"/></clipPath><clipPath id="7126004513"><path d="M 183 173 L 214 173 L 214 199.707031 L 183 199.707031 Z M 183 173 " clip-rule="nonzero"/></clipPath><clipPath id="9026d7136f"><path d="M 149 189 L 161 189 L 161 199.707031 L 149 199.707031 Z M 149 189 " clip-rule="nonzero"/></clipPath></defs><rect x="-37.5" width="450" fill="#ffffff" y="-37.499999" height="449.999989" fill-opacity="1"/><rect x="-37.5" width="450" fill="#ffffff" y="-37.499999" height="449.999989" fill-opacity="1"/><g clip-path="url(#977a37048c)"><g clip-path="url(#22b06f3360)"><path stroke-linecap="butt" transform="matrix(0.75, 0, 0, 0.75, 125.083501, 202.779699)" fill="none" stroke-linejoin="miter" d="M 22.998042 0.00206735 L 143.43555 0.00206735 C 156.133467 0.00206735 166.430343 10.293735 166.430343 22.996861 L 166.430343 23.345819 C 166.430343 36.048945 156.133467 46.34582 143.43555 46.34582 L 22.998042 46.34582 C 10.294916 46.34582 -0.00195978 36.048945 -0.00195978 23.345819 L -0.00195978 22.996861 C -0.00195978 10.293735 10.294916 0.00206735 22.998042 0.00206735 Z M 22.998042 0.00206735 " stroke="#a855f7" stroke-width="10" stroke-opacity="1" stroke-miterlimit="4"/></g></g><g clip-path="url(#9e190e8222)"><path fill="#e2a9f1" d="M 198.660156 137.464844 L 168.886719 189.035156 L 155.089844 165.136719 L 135.253906 199.492188 L 142.375 199.492188 L 155.089844 177.472656 L 165.324219 195.203125 L 162.847656 199.492188 L 175.707031 199.492188 L 198.660156 159.734375 L 221.617188 199.492188 L 234.476562 199.492188 Z M 198.660156 137.464844 " fill-opacity="1" fill-rule="nonzero"/></g><g clip-path="url(#7126004513)"><path fill="#9352a4" d="M 183.730469 199.492188 L 213.589844 199.492188 L 198.660156 173.632812 Z M 183.730469 199.492188 " fill-opacity="1" fill-rule="nonzero"/></g><g clip-path="url(#9026d7136f)"><path fill="#9352a4" d="M 149.574219 199.492188 L 160.605469 199.492188 L 155.089844 189.945312 Z M 149.574219 199.492188 " fill-opacity="1" fill-rule="nonzero"/></g><path fill="#9352a4" d="M 174.402344 165.136719 L 163.371094 165.136719 L 168.886719 174.6875 Z M 174.402344 165.136719 " fill-opacity="1" fill-rule="nonzero"/></svg>