<svg xmlns="http://www.w3.org/2000/svg" xmlns:xlink="http://www.w3.org/1999/xlink" width="500" zoomAndPan="magnify" viewBox="0 0 375 374.999991" height="500" preserveAspectRatio="xMidYMid meet" version="1.0"><defs><g/><clipPath id="76b1369eec"><path d="M 109.253906 191.957031 L 179.738281 191.957031 L 179.738281 211.457031 L 109.253906 211.457031 Z M 109.253906 191.957031 " clip-rule="nonzero"/></clipPath><clipPath id="efa8756b4e"><path d="M 119.097656 191.957031 L 170.113281 191.957031 C 175.550781 191.957031 179.957031 196.363281 179.957031 201.800781 C 179.957031 207.238281 175.550781 211.644531 170.113281 211.644531 L 119.097656 211.644531 C 113.660156 211.644531 109.253906 207.238281 109.253906 201.800781 C 109.253906 196.363281 113.660156 191.957031 119.097656 191.957031 Z M 119.097656 191.957031 " clip-rule="nonzero"/></clipPath><clipPath id="641aa8d908"><rect x="0" width="32" y="0" height="47"/></clipPath><clipPath id="4ac25e322d"><rect x="0" width="118" y="0" height="47"/></clipPath><clipPath id="7c0c8e5d85"><path d="M 115.007812 154.945312 L 171.257812 154.945312 L 171.257812 190.195312 L 115.007812 190.195312 Z M 115.007812 154.945312 " clip-rule="nonzero"/></clipPath><clipPath id="739833c3cd"><path d="M 142 175 L 160 175 L 160 190.195312 L 142 190.195312 Z M 142 175 " clip-rule="nonzero"/></clipPath><clipPath id="7a82f5239b"><path d="M 123 184 L 130 184 L 130 190.195312 L 123 190.195312 Z M 123 184 " clip-rule="nonzero"/></clipPath></defs><rect x="-37.5" width="450" fill="#ffffff" y="-37.499999" height="449.999989" fill-opacity="1"/><rect x="-37.5" width="450" fill="#ffffff" y="-37.499999" height="449.999989" fill-opacity="1"/><g clip-path="url(#76b1369eec)"><g clip-path="url(#efa8756b4e)"><path stroke-linecap="butt" transform="matrix(0.75, 0, 0, 0.75, 109.254782, 191.956379)" fill="none" stroke-linejoin="miter" d="M 13.123834 0.00086914 L 81.144676 0.00086914 C 88.394677 0.00086914 94.269678 5.87587 94.269678 13.125871 C 94.269678 20.375872 88.394677 26.250873 81.144676 26.250873 L 13.123834 26.250873 C 5.873833 26.250873 -0.00116783 20.375872 -0.00116783 13.125871 C -0.00116783 5.87587 5.873833 0.00086914 13.123834 0.00086914 Z M 13.123834 0.00086914 " stroke="#a855f7" stroke-width="10" stroke-opacity="1" stroke-miterlimit="4"/></g></g><g transform="matrix(1, 0, 0, 1, 78, 174)"><g clip-path="url(#641aa8d908)"><g fill="#000000" fill-opacity="1"><g transform="translate(0.710324, 36.153427)"><g><path d="M 26.359375 -26.40625 L 26.359375 0 L 23.609375 0 L 23.609375 -12.1875 L 7.09375 -12.1875 L 7.09375 0 L 4.296875 0 L 4.296875 -26.40625 L 7.09375 -26.40625 L 7.09375 -14.640625 L 23.609375 -14.640625 L 23.609375 -26.40625 Z M 26.359375 -26.40625 "/></g></g></g></g></g><g transform="matrix(1, 0, 0, 1, 179, 174)"><g clip-path="url(#4ac25e322d)"><g fill="#000000" fill-opacity="1"><g transform="translate(0.555733, 36.153427)"><g><path d="M 28.484375 -19.984375 C 30.972656 -19.984375 32.925781 -19.265625 34.34375 -17.828125 C 35.757812 -16.398438 36.46875 -14.289062 36.46875 -11.5 L 36.46875 0 L 33.796875 0 L 33.796875 -11.234375 C 33.796875 -13.296875 33.296875 -14.867188 32.296875 -15.953125 C 31.304688 -17.035156 29.90625 -17.578125 28.09375 -17.578125 C 26.03125 -17.578125 24.410156 -16.941406 23.234375 -15.671875 C 22.054688 -14.398438 21.46875 -12.644531 21.46875 -10.40625 L 21.46875 0 L 18.78125 0 L 18.78125 -11.234375 C 18.78125 -13.296875 18.28125 -14.867188 17.28125 -15.953125 C 16.289062 -17.035156 14.878906 -17.578125 13.046875 -17.578125 C 11.015625 -17.578125 9.398438 -16.941406 8.203125 -15.671875 C 7.003906 -14.398438 6.40625 -12.644531 6.40625 -10.40625 L 6.40625 0 L 3.734375 0 L 3.734375 -19.84375 L 6.296875 -19.84375 L 6.296875 -16.21875 C 7.003906 -17.425781 7.984375 -18.351562 9.234375 -19 C 10.492188 -19.65625 11.941406 -19.984375 13.578125 -19.984375 C 15.234375 -19.984375 16.671875 -19.628906 17.890625 -18.921875 C 19.117188 -18.222656 20.03125 -17.179688 20.625 -15.796875 C 21.351562 -17.109375 22.40625 -18.132812 23.78125 -18.875 C 25.15625 -19.613281 26.722656 -19.984375 28.484375 -19.984375 Z M 28.484375 -19.984375 "/></g></g></g><g fill="#000000" fill-opacity="1"><g transform="translate(40.583321, 36.153427)"><g><path d="M 21.015625 -9.09375 L 4.40625 -9.09375 C 4.5625 -7.03125 5.351562 -5.363281 6.78125 -4.09375 C 8.21875 -2.820312 10.03125 -2.1875 12.21875 -2.1875 C 13.445312 -2.1875 14.578125 -2.40625 15.609375 -2.84375 C 16.640625 -3.289062 17.535156 -3.941406 18.296875 -4.796875 L 19.796875 -3.0625 C 18.921875 -2 17.820312 -1.191406 16.5 -0.640625 C 15.175781 -0.0859375 13.722656 0.1875 12.140625 0.1875 C 10.109375 0.1875 8.304688 -0.242188 6.734375 -1.109375 C 5.160156 -1.972656 3.929688 -3.171875 3.046875 -4.703125 C 2.171875 -6.242188 1.734375 -7.984375 1.734375 -9.921875 C 1.734375 -11.859375 2.15625 -13.59375 3 -15.125 C 3.84375 -16.65625 5 -17.847656 6.46875 -18.703125 C 7.9375 -19.554688 9.585938 -19.984375 11.421875 -19.984375 C 13.265625 -19.984375 14.914062 -19.554688 16.375 -18.703125 C 17.832031 -17.847656 18.972656 -16.660156 19.796875 -15.140625 C 20.628906 -13.617188 21.046875 -11.878906 21.046875 -9.921875 Z M 11.421875 -17.6875 C 9.515625 -17.6875 7.910156 -17.078125 6.609375 -15.859375 C 5.316406 -14.640625 4.582031 -13.050781 4.40625 -11.09375 L 18.484375 -11.09375 C 18.304688 -13.050781 17.566406 -14.640625 16.265625 -15.859375 C 14.972656 -17.078125 13.359375 -17.6875 11.421875 -17.6875 Z M 11.421875 -17.6875 "/></g></g></g><g fill="#000000" fill-opacity="1"><g transform="translate(63.370002, 36.153427)"><g><path d="M 20.9375 -13.609375 C 22.664062 -13.234375 24 -12.484375 24.9375 -11.359375 C 25.882812 -10.242188 26.359375 -8.804688 26.359375 -7.046875 C 26.359375 -4.785156 25.519531 -3.046875 23.84375 -1.828125 C 22.175781 -0.609375 19.710938 0 16.453125 0 L 4.296875 0 L 4.296875 -26.40625 L 15.6875 -26.40625 C 18.632812 -26.40625 20.914062 -25.8125 22.53125 -24.625 C 24.15625 -23.445312 24.96875 -21.773438 24.96875 -19.609375 C 24.96875 -18.148438 24.609375 -16.910156 23.890625 -15.890625 C 23.171875 -14.878906 22.1875 -14.117188 20.9375 -13.609375 Z M 7.09375 -24.109375 L 7.09375 -14.515625 L 15.5 -14.515625 C 17.632812 -14.515625 19.28125 -14.921875 20.4375 -15.734375 C 21.59375 -16.554688 22.171875 -17.75 22.171875 -19.3125 C 22.171875 -20.875 21.59375 -22.0625 20.4375 -22.875 C 19.28125 -23.695312 17.632812 -24.109375 15.5 -24.109375 Z M 16.40625 -2.296875 C 18.769531 -2.296875 20.554688 -2.695312 21.765625 -3.5 C 22.972656 -4.3125 23.578125 -5.570312 23.578125 -7.28125 C 23.578125 -10.570312 21.1875 -12.21875 16.40625 -12.21875 L 7.09375 -12.21875 L 7.09375 -2.296875 Z M 16.40625 -2.296875 "/></g></g></g><g fill="#000000" fill-opacity="1"><g transform="translate(91.815624, 36.153427)"><g><path d="M 3.734375 -19.84375 L 6.40625 -19.84375 L 6.40625 0 L 3.734375 0 Z M 5.09375 -24.171875 C 4.539062 -24.171875 4.070312 -24.359375 3.6875 -24.734375 C 3.3125 -25.117188 3.125 -25.570312 3.125 -26.09375 C 3.125 -26.601562 3.3125 -27.046875 3.6875 -27.421875 C 4.070312 -27.796875 4.539062 -27.984375 5.09375 -27.984375 C 5.644531 -27.984375 6.109375 -27.800781 6.484375 -27.4375 C 6.859375 -27.070312 7.046875 -26.640625 7.046875 -26.140625 C 7.046875 -25.585938 6.859375 -25.117188 6.484375 -24.734375 C 6.109375 -24.359375 5.644531 -24.171875 5.09375 -24.171875 Z M 5.09375 -24.171875 "/></g></g></g><g fill="#000000" fill-opacity="1"><g transform="translate(101.963993, 36.153427)"><g><path d="M 14.1875 -1.203125 C 13.675781 -0.753906 13.050781 -0.410156 12.3125 -0.171875 C 11.570312 0.0664062 10.800781 0.1875 10 0.1875 C 8.132812 0.1875 6.695312 -0.3125 5.6875 -1.3125 C 4.6875 -2.320312 4.1875 -3.742188 4.1875 -5.578125 L 4.1875 -17.578125 L 0.640625 -17.578125 L 0.640625 -19.84375 L 4.1875 -19.84375 L 4.1875 -24.171875 L 6.859375 -24.171875 L 6.859375 -19.84375 L 12.90625 -19.84375 L 12.90625 -17.578125 L 6.859375 -17.578125 L 6.859375 -5.734375 C 6.859375 -4.546875 7.15625 -3.644531 7.75 -3.03125 C 8.34375 -2.414062 9.191406 -2.109375 10.296875 -2.109375 C 10.847656 -2.109375 11.378906 -2.195312 11.890625 -2.375 C 12.410156 -2.550781 12.859375 -2.800781 13.234375 -3.125 Z M 14.1875 -1.203125 "/></g></g></g></g></g><g clip-path="url(#7c0c8e5d85)"><path fill="#e2a9f1" d="M 150.933594 154.945312 L 134.0625 184.167969 L 126.242188 170.628906 L 115.003906 190.097656 L 119.039062 190.097656 L 126.242188 177.617188 L 132.042969 187.664062 L 130.640625 190.097656 L 137.925781 190.097656 L 150.933594 167.566406 L 163.941406 190.097656 L 171.230469 190.097656 Z M 150.933594 154.945312 " fill-opacity="1" fill-rule="nonzero"/></g><g clip-path="url(#739833c3cd)"><path fill="#9352a4" d="M 142.472656 190.097656 L 159.394531 190.097656 L 150.933594 175.441406 Z M 142.472656 190.097656 " fill-opacity="1" fill-rule="nonzero"/></g><g clip-path="url(#7a82f5239b)"><path fill="#9352a4" d="M 123.117188 190.097656 L 129.367188 190.097656 L 126.242188 184.683594 Z M 123.117188 190.097656 " fill-opacity="1" fill-rule="nonzero"/></g><path fill="#9352a4" d="M 137.1875 170.628906 L 130.9375 170.628906 L 134.0625 176.039062 Z M 137.1875 170.628906 " fill-opacity="1" fill-rule="nonzero"/></svg>